<svg viewBox="0 0 159 35"><path d="M7.95 26.25l-3.232 7.79h23.108l-3.195-7.79H7.95zm8.47-20.398L9.474 22.524h13.635L16.532 5.852h-.111zM0 .96v33.08h.223L14.637.96H0zM22.439.96L20.84 2.578l3.455 3.5-3.455 3.5 1.598 1.656 3.455-3.538 3.455 3.538 1.597-1.656-3.455-3.5 3.455-3.5L29.35.96l-3.455 3.5-3.455-3.5zM158.922 22.601c-.939-.85-2.191-1.236-3.521-1.236-2.269 0-4.459 1.159-4.459 3.632 0 4.329 5.789 2.783 5.789 5.41 0 1.083-1.173 1.624-2.112 1.624-.939 0-1.878-.464-2.426-1.237l-1.642 1.546c1.017 1.16 2.503 1.623 3.99 1.623 2.425 0 4.459-1.237 4.459-3.865 0-4.25-5.789-2.937-5.789-5.333 0-1.082 1.017-1.546 2.034-1.546.86 0 1.643.31 2.112.928l1.565-1.546zm-19.794 11.13h8.371V31.8h-6.18v-3.246h5.554V26.62h-5.554v-2.937h5.867v-1.932h-8.058v11.98zm-8.997 0h2.19V23.606h3.756v-1.932h-9.623v1.932h3.755v10.125h-.078zm-12.44-4.637l1.878-4.87 1.878 4.87h-3.756zm-4.303 4.637h2.426l1.095-2.782h5.32l1.174 2.782h2.503l-5.242-12.057h-1.877l-5.399 12.057zm-5.163 0h2.19V21.674h-2.19V33.73zm-3.286-10.434c-1.174-1.391-2.582-1.933-4.303-1.933-3.755 0-6.415 2.551-6.415 6.416 0 3.787 2.66 6.26 6.415 6.26 1.799 0 3.442-.618 4.538-2.164l-1.8-1.236c-.782 1.004-1.721 1.468-2.738 1.468-2.504 0-4.147-1.932-4.147-4.483 0-2.396 1.643-4.328 4.147-4.328.86 0 1.643.232 2.582 1.16l1.721-1.16zm-24.488 4.328c0-2.396 1.643-4.328 4.146-4.328 2.504 0 4.225 1.932 4.225 4.328 0 2.55-1.643 4.483-4.225 4.483-2.425 0-4.146-1.932-4.146-4.483zm-2.269.155c0 3.787 2.66 6.26 6.415 6.26 3.834-.077 6.494-2.55 6.494-6.338 0-3.864-2.66-6.415-6.494-6.338-3.755 0-6.415 2.551-6.415 6.416zm-3.13-5.179c-.938-.85-2.19-1.236-3.52-1.236-2.269 0-4.46 1.159-4.46 3.632 0 4.329 5.79 2.783 5.79 5.41 0 1.083-1.174 1.624-2.112 1.624-.94 0-1.878-.464-2.426-1.237l-1.643 1.546c1.017 1.16 2.504 1.623 3.99 1.623 2.426 0 4.46-1.237 4.46-3.865 0-4.25-5.79-2.937-5.79-5.333 0-1.082 1.017-1.546 2.035-1.546.86 0 1.642.31 2.112.928l1.565-1.546zm-11.265 0c-.94-.85-2.191-1.236-3.521-1.236-2.269 0-4.46 1.159-4.46 3.632 0 4.329 5.79 2.783 5.79 5.41 0 1.083-1.174 1.624-2.112 1.624-.94 0-1.878-.464-2.426-1.237l-1.643 1.546c1.017 1.16 2.504 1.623 3.99 1.623 2.426 0 4.46-1.237 4.46-3.865 0-4.25-5.79-2.937-5.79-5.333 0-1.082 1.017-1.546 2.034-1.546.861 0 1.643.31 2.113.928l1.565-1.546zm-18.934 6.493l1.878-4.87 1.878 4.87h-3.756zM40.55 33.73h2.426l1.095-2.782h5.32l1.174 2.782h2.503l-5.32-12.057h-1.877L40.55 33.73zM92.656 13.326h2.034V3.278l3.755 10.048h1.565l3.677-10.048v10.048h2.034V1.268h-3.286l-3.207 8.425-3.286-8.425h-3.286v12.058zM78.26 7.22c0-2.396 1.643-4.329 4.147-4.329 2.503 0 4.225 1.933 4.225 4.329 0 2.55-1.643 4.483-4.225 4.483-2.504 0-4.147-1.933-4.147-4.483zm-2.269.154c0 3.788 2.66 6.26 6.416 6.26 3.833-.077 6.493-2.55 6.493-6.337 0-3.865-2.66-6.415-6.493-6.338-3.756 0-6.416 2.55-6.416 6.415zm-5.79 5.952h2.192V1.268h-2.191v12.058zm-14.864 0h2.582l3.208-5.102 3.207 5.102h2.817l-4.46-6.26 3.99-5.72h-2.66l-2.816 4.482-2.895-4.482h-2.738l4.068 5.72-4.303 6.26zM44.853 8.688l1.878-4.87 1.878 4.87h-3.756zm-4.303 4.638h2.426l1.095-2.783h5.32l1.174 2.783h2.503l-5.32-12.058h-1.877l-5.32 12.058z"/></svg>